HIERARCHY
ROOT hip
{
  OFFSET 0 0 0
  CHANNELS 6 Xposition Yposition Zposition Zrotation Yrotation Xrotation
  JOINT abdomen
  {
    OFFSET 0 20.6881 -0.73152
    CHANNELS 3 Zrotation Xrotation Yrotation
    JOINT chest
    {
      OFFSET 0 11.7043 -0.48768
      CHANNELS 3 Zrotation Xrotation Yrotation
      JOINT neck
      {
        OFFSET 0 22.1894 -2.19456
        CHANNELS 3 Zrotation Xrotation Yrotation
        JOINT head
        {
          OFFSET -0.24384 7.07133 1.2192
          CHANNELS 3 Zrotation Xrotation Yrotation
          JOINT leftEye
          {
            OFFSET 4.14528 8.04674 8.04672
            CHANNELS 3 Zrotation Xrotation Yrotation
            End Site
            {
              OFFSET 1 0 0
            }
          }
          JOINT rightEye
          {
            OFFSET -3.6576 8.04674 8.04672
            CHANNELS 3 Zrotation Xrotation Yrotation
            End Site
            {
              OFFSET 1 0 0
            }
          }
        }
      }
      JOINT rCollar
      {
        OFFSET -2.68224 19.2634 -4.8768
        CHANNELS 3 Zrotation Xrotation Yrotation
        JOINT rShldr
        {
          OFFSET -8.77824 -1.95073 1.46304
          CHANNELS 3 Zrotation Xrotation Yrotation
          JOINT rForeArm
          {
            OFFSET -28.1742 -1.7115 0.48768
            CHANNELS 3 Zrotation Xrotation Yrotation
            JOINT rHand
            {
              OFFSET -22.5879 0.773209 7.07136
              CHANNELS 3 Zrotation Xrotation Yrotation
              JOINT rThumb1
              {
                OFFSET -1.2192 -0.487915 3.41376
                CHANNELS 3 Zrotation Xrotation Yrotation
                JOINT rThumb2
                {
                  OFFSET -3.37035 -0.52449 3.41376
                  CHANNELS 3 Zrotation Xrotation Yrotation
                  End Site
                  {
                    OFFSET -1.78271 -1.18214 1.43049
                  }
                }
              }
              JOINT rIndex1
              {
                OFFSET -7.75947 0.938293 5.60832
                CHANNELS 3 Zrotation Xrotation Yrotation
                JOINT rIndex2
                {
                  OFFSET -2.54057 -0.884171 1.56538
                  CHANNELS 3 Zrotation Xrotation Yrotation
                  End Site
                  {
                    OFFSET -1.62519 -0.234802 1.16502
                  }
                }
              }
              JOINT rMid1
              {
                OFFSET -8.24714 1.18213 3.41376
                CHANNELS 3 Zrotation Xrotation Yrotation
                JOINT rMid2
                {
                  OFFSET -3.10165 -0.590103 1.0647
                  CHANNELS 3 Zrotation Xrotation Yrotation
                  End Site
                  {
                    OFFSET -2.48547 -0.328903 0.83742
                  }
                }
              }
              JOINT rRing1
              {
                OFFSET -8.82822 0.546677 1.51678
                CHANNELS 3 Zrotation Xrotation Yrotation
                JOINT rRing2
                {
                  OFFSET -2.60934 -0.819778 -0.0198488
                  CHANNELS 3 Zrotation Xrotation Yrotation
                  End Site
                  {
                    OFFSET -2.33842 -0.294052 0.168128
                  }
                }
              }
              JOINT rPinky1
              {
                OFFSET -8.27202 -0.0477905 -0.4584
                CHANNELS 3 Zrotation Xrotation Yrotation
                JOINT rPinky2
                {
                  OFFSET -1.82734 -0.647385 -0.700984
                  CHANNELS 3 Zrotation Xrotation Yrotation
                  End Site
                  {
                    OFFSET -1.69225 -0.51767 -0.607171
                  }
                }
              }
            }
          }
        }
      }
      JOINT lCollar
      {
        OFFSET 2.68224 19.2634 -4.8768
        CHANNELS 3 Zrotation Xrotation Yrotation
        JOINT lShldr
        {
          OFFSET 8.77824 -1.95073 1.46304
          CHANNELS 3 Zrotation Xrotation Yrotation
          JOINT lForeArm
          {
            OFFSET 28.1742 -1.7115 0.48768
            CHANNELS 3 Zrotation Xrotation Yrotation
            JOINT lHand
            {
              OFFSET 22.5879 0.773209 7.07136
              CHANNELS 3 Zrotation Xrotation Yrotation
              JOINT lThumb1
              {
                OFFSET 1.2192 -0.487915 3.41376
                CHANNELS 3 Zrotation Xrotation Yrotation
                JOINT lThumb2
                {
                  OFFSET 3.37035 -0.52449 3.41376
                  CHANNELS 3 Zrotation Xrotation Yrotation
                  End Site
                  {
                    OFFSET 1.78271 -1.18214 1.43049
                  }
                }
              }
              JOINT lIndex1
              {
                OFFSET 7.75947 0.938293 5.60832
                CHANNELS 3 Zrotation Xrotation Yrotation
                JOINT lIndex2
                {
                  OFFSET 2.54057 -0.884171 1.56538
                  CHANNELS 3 Zrotation Xrotation Yrotation
                  End Site
                  {
                    OFFSET 1.62519 -0.234802 1.16502
                  }
                }
              }
              JOINT lMid1
              {
                OFFSET 8.24714 1.18213 3.41376
                CHANNELS 3 Zrotation Xrotation Yrotation
                JOINT lMid2
                {
                  OFFSET 3.10165 -0.590103 1.0647
                  CHANNELS 3 Zrotation Xrotation Yrotation
                  End Site
                  {
                    OFFSET 2.48547 -0.328903 0.83742
                  }
                }
              }
              JOINT lRing1
              {
                OFFSET 8.82822 0.546677 1.51678
                CHANNELS 3 Zrotation Xrotation Yrotation
                JOINT lRing2
                {
                  OFFSET 2.60934 -0.819778 -0.0198488
                  CHANNELS 3 Zrotation Xrotation Yrotation
                  End Site
                  {
                    OFFSET 2.33842 -0.294052 0.168128
                  }
                }
              }
              JOINT lPinky1
              {
                OFFSET 8.27202 -0.0477905 -0.4584
                CHANNELS 3 Zrotation Xrotation Yrotation
                JOINT lPinky2
                {
                  OFFSET 1.82734 -0.647385 -0.700984
                  CHANNELS 3 Zrotation Xrotation Yrotation
                  End Site
                  {
                    OFFSET 1.69225 -0.51767 -0.607171
                  }
                }
              }
            }
          }
        }
      }
    }
  }
  JOINT rButtock
  {
    OFFSET -8.77824 4.35084 1.2192
    CHANNELS 3 Zrotation Xrotation Yrotation
    JOINT rThigh
    {
      OFFSET 0 -1.70687 -2.19456
      CHANNELS 3 Zrotation Xrotation Yrotation
      JOINT rShin
      {
        OFFSET 0 -36.8199 0.73152
        CHANNELS 3 Zrotation Xrotation Yrotation
        JOINT rFoot
        {
          OFFSET 0.73152 -45.1104 -5.12064
          CHANNELS 3 Zrotation Xrotation Yrotation
          End Site
          {
            OFFSET -1.1221 -3.69964 12.103
          }
        }
      }
    }
  }
  JOINT lButtock
  {
    OFFSET 8.77824 4.35084 1.2192
    CHANNELS 3 Zrotation Xrotation Yrotation
    JOINT lThigh
    {
      OFFSET 0 -1.70687 -2.19456
      CHANNELS 3 Zrotation Xrotation Yrotation
      JOINT lShin
      {
        OFFSET 0 -36.8199 0.73152
        CHANNELS 3 Zrotation Xrotation Yrotation
        JOINT lFoot
        {
          OFFSET -0.73152 -45.1104 -5.12064
          CHANNELS 3 Zrotation Xrotation Yrotation
          End Site
          {
            OFFSET 1.1221 -3.69964 12.103
          }
        }
      }
    }
  }
}
MOTION
Frames:	4
Frame Time:	0.03333
0.0 0.0 0.0 0.0 0.0 0.0 0.0 0.0 0.0 0.0 0.0 0.0 0.0 0.0 0.0 0.0 0.0 0.0 0.0 0.0 0.0 0.0 0.0 0.0 0.0 0.0 0.0 0.0 0.0 0.0 0.0 0.0 0.0 0.0 0.0 0.0 0.0 0.0 0.0 0.0 0.0 0.0 0.0 0.0 0.0 0.0 0.0 0.0 0.0 0.0 0.0 0.0 0.0 0.0 0.0 0.0 0.0 0.0 0.0 0.0 0.0 0.0 0.0 0.0 0.0 0.0 0.0 0.0 0.0 0.0 0.0 0.0 0.0 0.0 0.0 0.0 0.0 0.0 0.0 0.0 0.0 0.0 0.0 0.0 0.0 0.0 0.0 0.0 0.0 0.0 0.0 0.0 0.0 0.0 0.0 0.0 0.0 0.0 0.0 0.0 0.0 0.0 0.0 0.0 0.0 0.0 0.0 0.0 0.0 0.0 0.0 0.0 0.0 0.0 0.0 0.0 0.0 0.0 0.0 0.0 0.0 0.0 0.0 0.0 0.0 0.0 0.0 0.0 0.0 0.0 0.0 0.0
-4.3476 62.5783 7.1325 2.205003 36.572727 14.985805 -7.846013 21.209614 20.851672 -0.148148 -14.667968 -22.748669 -9.374755 20.656243 -14.057607 19.589308 -37.82718 -28.058834 -0.00402 -0.0 0.00229 -0.00402 -0.0 0.00229 -3.767742 17.920981 4.641342 -101.70267 33.377721 127.024978 -66.571338 32.239182 -110.520529 144.774221 -69.390067 123.358564 175.880046 -21.257473 88.492922 -80.059117 12.992705 25.498421 -77.667323 43.031524 64.538365 -178.39501 -31.830629 111.878306 -166.119145 -24.039497 145.07884 29.894473 -60.080218 7.091743 -145.122927 1.975993 -179.749692 -7.327356 -61.367167 -28.145374 0.465335 1.22683 0.426295 61.404446 85.768419 -23.18154 59.833559 -86.721062 81.6346 86.820206 -36.453312 93.81087 -5.166686 20.050298 145.645985 -176.806259 -10.652669 -143.585638 68.482342 37.953138 -35.660119 -42.13545 -35.445054 -16.845372 10.571694 15.013382 -6.864883 159.725644 -8.44037 -110.159591 10.976267 25.789651 -7.640939 171.991371 -31.361088 -144.081246 145.111545 -0.626133 178.929666 152.353657 -24.840511 175.372706 24.989131 -37.660038 24.058537 9.501693 -26.002076 11.690612 -0.004989 -0.001 -0.002494 -39.07187 -66.86918 -180.0 -84.316077 -59.445226 8.583464 13.246068 -7.220311 68.95262 0.000218 -0.000356 -0.0 31.626102 -45.272233 40.91906 80.824218 54.264632 -4.814734 -164.974294 -26.989468 54.139762
-6.4781 64.4853 11.8552 -2.005588 39.223346 11.28091 -5.091468 22.051207 1.718813 4.043538 -14.056037 -1.90121 -15.389926 31.722424 -86.702789 52.605148 9.736858 32.962439 -0.000864 -0.0 0.003238 -0.001126 0.0 -0.002359 -6.633463 27.325882 7.893949 -107.516289 33.278589 122.727011 -178.542666 -2.30073 -71.862137 -9.816104 6.570401 -1.689932 -5.760955 5.57646 1.157479 1.848018 -1.042362 2.284975 -151.094124 -16.679247 121.049478 -62.184014 57.355167 46.029685 -39.289739 53.365568 32.878774 -0.087611 9.858329 1.691185 -0.024572 -1.806419 -0.568722 11.674207 -40.156051 -4.890046 -139.225967 -4.397268 -136.390754 -162.029747 55.913168 -146.767999 155.57771 -3.999452 -161.941516 -132.120609 -23.586663 -168.642246 127.636494 -20.710491 -35.79935 -134.619819 -68.856821 -114.697121 -178.339116 -19.018556 -88.988719 -35.146291 -71.275532 -25.139116 50.387367 40.825727 -40.024823 89.461748 49.780736 -66.208665 173.037789 -44.087778 -144.93081 88.733809 63.743431 -80.324512 145.118357 0.268168 179.21172 79.461694 87.681864 -92.762446 141.69822 1.89925 138.684439 9.389853 -23.362002 12.077867 0.000258 -4.1e-05 -0.000332 -21.288662 -60.795774 -18.989352 63.755758 75.907646 60.356236 -107.280456 -13.986568 -177.912453 0.006695 0.000478 0.006696 27.338191 -57.089323 126.587524 98.101873 -30.900422 5.066241 -121.606431 43.735561 28.017171
-8.6075 66.1653 17.412 -6.15698 42.202666 7.387079 -3.225007 17.349984 -136.416553 3.734894 9.441868 135.82906 7.812708 29.048473 94.52111 -45.732549 11.229828 -142.768454 0.001717 0.0 0.001946 0.001717 0.0 0.001946 -0.165447 0.979169 0.21894 -127.321198 16.286628 148.146917 1.727488 -5.02218 -145.390705 -174.94706 -2.397836 142.662144 -170.594888 -8.277276 89.949081 116.797731 -60.875228 85.408875 -166.865293 -44.037127 122.053944 -157.153677 -12.463328 119.151108 -36.034931 51.724095 29.830351 -162.833783 -3.955339 143.166756 -145.123353 1.97403 -179.747681 11.763576 29.608669 -5.636256 13.63535 46.898311 11.15728 -151.763031 23.903738 -145.883359 -0.117621 -0.714144 0.157398 -41.680155 88.114042 -24.960342 125.536565 9.059799 0.550347 -124.099105 -72.142861 -104.888815 -81.276556 -49.995035 -32.240248 31.8009 6.467829 7.769367 46.206923 39.653411 -36.318596 -1.533125 7.763543 1.10135 -89.034524 -81.394384 -59.76066 130.813986 50.938271 -119.639659 145.123969 1.974909 179.749887 -11.907013 49.068916 3.263286 86.001021 -50.499005 84.371111 19.849358 -37.417467 22.075035 0.000402 0.000387 -0.000517 -10.540072 -55.558842 -12.713666 50.618159 70.083826 43.462925 -105.970376 -41.925763 174.194396 0.0 -0.000388 0.000925 17.221834 -65.770126 158.982057 113.117673 -64.194057 14.360411 -52.226307 40.342578 -42.140449
